# Blender v3.2.2 OBJ File: 'qrcube.blend'
# www.blender.org
mtllib qrcube.mtl
o Cube
v 0.100000 0.100000 0.200000
v 0.100000 0.100000 0.000000
v 0.100000 -0.100000 0.200000
v 0.100000 -0.100000 0.000000
v -0.100000 0.100000 0.200000
v -0.100000 0.100000 0.000000
v -0.100000 -0.100000 0.200000
v -0.100000 -0.100000 0.000000
vt 0.180222 0.161525
vt 0.847036 0.161525
vt 0.847036 0.828340
vt 0.180222 0.828340
vt 0.842492 0.161525
vt 0.842492 0.828340
vt 0.175678 0.828340
vt 0.175678 0.161525
vt 0.849308 0.159273
vt 0.849308 0.826087
vt 0.182494 0.826087
vt 0.182494 0.159273
vt 0.177950 0.161525
vt 0.844764 0.161525
vt 0.844764 0.828340
vt 0.177950 0.828340
vt 0.844764 0.159273
vt 0.844764 0.826087
vt 0.177950 0.826087
vt 0.177950 0.159273
vt 0.845900 0.160399
vt 0.845900 0.827213
vt 0.179086 0.827213
vt 0.179086 0.160399
vn 0.0000 0.0000 1.0000
vn 0.0000 -1.0000 0.0000
vn -1.0000 0.0000 0.0000
vn 0.0000 0.0000 -1.0000
vn 1.0000 0.0000 0.0000
vn 0.0000 1.0000 0.0000
g Cube_Cube_Material
usemtl Material
s off
f 1/1/1 5/2/1 7/3/1 3/4/1
f 4/5/2 3/6/2 7/7/2 8/8/2
f 8/9/3 7/10/3 5/11/3 6/12/3
f 6/13/4 2/14/4 4/15/4 8/16/4
f 2/17/5 1/18/5 3/19/5 4/20/5
f 6/21/6 5/22/6 1/23/6 2/24/6
